REM DIRINDEX 1\6,1\2\7,1\2\8,1\2\9,1\3\10,1\3\11,1\4\12,1\4\13,1\4\14,1\5\15,1\5\16,1\5\17
REM DIRNAME cjc040,folder01,folder02,folder03,folder04,folder05,folder06,folder07,folder08,folder09,folder10,folder11,folder12,folder13,folder14,folder15,folder16
TITLE ""
FILE "P2Q_t2_0374-0390.mp3" MP3
  TRACK 01 AUDIO
    TITLE "6:cjc040_4950"
    INDEX 01 00:00:00
  TRACK 02 AUDIO
    TITLE "0:"
    INDEX 01 00:05:57
  TRACK 03 AUDIO
    TITLE "7:cjc040_4951"
    INDEX 01 00:06:73
  TRACK 04 AUDIO
    TITLE "0:"
    INDEX 01 00:08:07
  TRACK 05 AUDIO
    TITLE "8:cjc040_4952"
    INDEX 01 00:08:66
  TRACK 06 AUDIO
    TITLE "0:"
    INDEX 01 00:11:52
  TRACK 07 AUDIO
    TITLE "9:cjc040_4953"
    INDEX 01 00:12:28
  TRACK 08 AUDIO
    TITLE "0:"
    INDEX 01 00:13:39
  TRACK 09 AUDIO
    TITLE "7:cjc040_4954"
    INDEX 01 00:15:21
  TRACK 10 AUDIO
    TITLE "0:"
    INDEX 01 00:16:18
  TRACK 11 AUDIO
    TITLE "8:cjc040_4955"
    INDEX 01 00:17:04
  TRACK 12 AUDIO
    TITLE "0:"
    INDEX 01 00:19:13
  TRACK 13 AUDIO
    TITLE "9:cjc040_4956"
    INDEX 01 00:19:63
  TRACK 14 AUDIO
    TITLE "0:"
    INDEX 01 00:20:67
  TRACK 15 AUDIO
    TITLE "7:cjc040_4957"
    INDEX 01 00:22:48
  TRACK 16 AUDIO
    TITLE "0:"
    INDEX 01 00:23:55
  TRACK 17 AUDIO
    TITLE "8:cjc040_4958"
    INDEX 01 00:24:35
  TRACK 18 AUDIO
    TITLE "0:"
    INDEX 01 00:25:58
  TRACK 19 AUDIO
    TITLE "9:cjc040_4959"
    INDEX 01 00:26:34
  TRACK 20 AUDIO
    TITLE "0:"
    INDEX 01 00:27:45
  TRACK 21 AUDIO
    TITLE "7:cjc040_4960"
    INDEX 01 00:29:27
  TRACK 22 AUDIO
    TITLE "0:"
    INDEX 01 00:30:52
  TRACK 23 AUDIO
    TITLE "8:cjc040_4961"
    INDEX 01 00:31:27
  TRACK 24 AUDIO
    TITLE "0:"
    INDEX 01 00:35:55
  TRACK 25 AUDIO
    TITLE "9:cjc040_4962"
    INDEX 01 00:36:33
  TRACK 26 AUDIO
    TITLE "0:"
    INDEX 01 00:37:63
  TRACK 27 AUDIO
    TITLE "7:cjc040_4963"
    INDEX 01 00:39:43
  TRACK 28 AUDIO
    TITLE "0:"
    INDEX 01 00:40:58
  TRACK 29 AUDIO
    TITLE "8:cjc040_4964"
    INDEX 01 00:41:32
  TRACK 30 AUDIO
    TITLE "0:"
    INDEX 01 00:42:68
  TRACK 31 AUDIO
    TITLE "9:cjc040_4965"
    INDEX 01 00:43:44
  TRACK 32 AUDIO
    TITLE "0:"
    INDEX 01 00:44:65
  TRACK 33 AUDIO
    TITLE "7:cjc040_4966"
    INDEX 01 00:46:47
  TRACK 34 AUDIO
    TITLE "0:"
    INDEX 01 00:47:54
  TRACK 35 AUDIO
    TITLE "8:cjc040_4967"
    INDEX 01 00:48:34
  TRACK 36 AUDIO
    TITLE "0:"
    INDEX 01 00:51:46
  TRACK 37 AUDIO
    TITLE "9:cjc040_4968"
    INDEX 01 00:52:26
  TRACK 38 AUDIO
    TITLE "0:"
    INDEX 01 00:53:37
  TRACK 39 AUDIO
    TITLE "7:cjc040_4969"
    INDEX 01 00:55:22
  TRACK 40 AUDIO
    TITLE "0:"
    INDEX 01 00:56:55
  TRACK 41 AUDIO
    TITLE "8:cjc040_4970"
    INDEX 01 00:57:31
  TRACK 42 AUDIO
    TITLE "0:"
    INDEX 01 01:00:43
  TRACK 43 AUDIO
    TITLE "9:cjc040_4971"
    INDEX 01 01:01:25
  TRACK 44 AUDIO
    TITLE "0:"
    INDEX 01 01:02:57
  TRACK 45 AUDIO
    TITLE "7:cjc040_4972"
    INDEX 01 01:04:41
  TRACK 46 AUDIO
    TITLE "0:"
    INDEX 01 01:05:69
  TRACK 47 AUDIO
    TITLE "8:cjc040_4973"
    INDEX 01 01:06:53
  TRACK 48 AUDIO
    TITLE "0:"
    INDEX 01 01:10:73
  TRACK 49 AUDIO
    TITLE "9:cjc040_4974"
    INDEX 01 01:11:51
  TRACK 50 AUDIO
    TITLE "0:"
    INDEX 01 01:13:06
  TRACK 51 AUDIO
    TITLE "7:cjc040_4975"
    INDEX 01 01:14:61
  TRACK 52 AUDIO
    TITLE "0:"
    INDEX 01 01:16:01
  TRACK 53 AUDIO
    TITLE "8:cjc040_4976"
    INDEX 01 01:16:60
  TRACK 54 AUDIO
    TITLE "0:"
    INDEX 01 01:17:73
  TRACK 55 AUDIO
    TITLE "9:cjc040_4977"
    INDEX 01 01:18:56
  TRACK 56 AUDIO
    TITLE "0:"
    INDEX 01 01:20:04
  TRACK 57 AUDIO
    TITLE "7:cjc040_4978"
    INDEX 01 01:21:61
  TRACK 58 AUDIO
    TITLE "0:"
    INDEX 01 01:23:07
  TRACK 59 AUDIO
    TITLE "8:cjc040_4979"
    INDEX 01 01:23:67
  TRACK 60 AUDIO
    TITLE "0:"
    INDEX 01 01:25:33
  TRACK 61 AUDIO
    TITLE "9:cjc040_4980"
    INDEX 01 01:26:15
  TRACK 62 AUDIO
    TITLE "0:"
    INDEX 01 01:27:42
  TRACK 63 AUDIO
    TITLE "7:cjc040_4981"
    INDEX 01 01:29:35
  TRACK 64 AUDIO
    TITLE "0:"
    INDEX 01 01:30:34
  TRACK 65 AUDIO
    TITLE "8:cjc040_4982"
    INDEX 01 01:31:22
  TRACK 66 AUDIO
    TITLE "0:"
    INDEX 01 01:32:31
  TRACK 67 AUDIO
    TITLE "9:cjc040_4983"
    INDEX 01 01:33:19
  TRACK 68 AUDIO
    TITLE "0:"
    INDEX 01 01:34:18
  TRACK 69 AUDIO
    TITLE "7:cjc040_4984"
    INDEX 01 01:36:05
  TRACK 70 AUDIO
    TITLE "0:"
    INDEX 01 01:37:19
  TRACK 71 AUDIO
    TITLE "8:cjc040_4985"
    INDEX 01 01:37:73
  TRACK 72 AUDIO
    TITLE "0:"
    INDEX 01 01:41:20
  TRACK 73 AUDIO
    TITLE "9:cjc040_4986"
    INDEX 01 01:42:00
  TRACK 74 AUDIO
    TITLE "0:"
    INDEX 01 01:43:07
  TRACK 75 AUDIO
    TITLE "7:cjc040_4987"
    INDEX 01 01:44:72
  TRACK 76 AUDIO
    TITLE "0:"
    INDEX 01 01:46:10
  TRACK 77 AUDIO
    TITLE "8:cjc040_4988"
    INDEX 01 01:46:66
  TRACK 78 AUDIO
    TITLE "0:"
    INDEX 01 01:49:28
  TRACK 79 AUDIO
    TITLE "9:cjc040_4989"
    INDEX 01 01:50:06
  TRACK 80 AUDIO
    TITLE "0:"
    INDEX 01 01:51:21
  TRACK 81 AUDIO
    TITLE "7:cjc040_4990"
    INDEX 01 01:53:02
  TRACK 82 AUDIO
    TITLE "0:"
    INDEX 01 01:54:13
  TRACK 83 AUDIO
    TITLE "8:cjc040_4991"
    INDEX 01 01:54:66
  TRACK 84 AUDIO
    TITLE "0:"
    INDEX 01 01:57:33
  TRACK 85 AUDIO
    TITLE "9:cjc040_4992"
    INDEX 01 01:58:15
  TRACK 86 AUDIO
    TITLE "0:"
    INDEX 01 01:59:22
  TRACK 87 AUDIO
    TITLE "7:cjc040_4993"
    INDEX 01 02:01:15
  TRACK 88 AUDIO
    TITLE "0:"
    INDEX 01 02:02:18
  TRACK 89 AUDIO
    TITLE "8:cjc040_4994"
    INDEX 01 02:03:04
  TRACK 90 AUDIO
    TITLE "0:"
    INDEX 01 02:05:38
  TRACK 91 AUDIO
    TITLE "9:cjc040_4995"
    INDEX 01 02:06:20
  TRACK 92 AUDIO
    TITLE "0:"
    INDEX 01 02:07:27
  TRACK 93 AUDIO
    TITLE "7:cjc040_4996"
    INDEX 01 02:09:17
  TRACK 94 AUDIO
    TITLE "0:"
    INDEX 01 02:10:10
  TRACK 95 AUDIO
    TITLE "8:cjc040_4997"
    INDEX 01 02:10:65
  TRACK 96 AUDIO
    TITLE "0:"
    INDEX 01 02:13:22
  TRACK 97 AUDIO
    TITLE "9:cjc040_4998"
    INDEX 01 02:13:71
  TRACK 98 AUDIO
    TITLE "0:"
    INDEX 01 02:14:67
  TRACK 99 AUDIO
    TITLE "7:cjc040_4999"
    INDEX 01 02:16:52
  TRACK 100 AUDIO
    TITLE "0:"
    INDEX 01 02:17:67
  TRACK 101 AUDIO
    TITLE "8:cjc040_5000"
    INDEX 01 02:18:53
  TRACK 102 AUDIO
    TITLE "0:"
    INDEX 01 02:20:20
  TRACK 103 AUDIO
    TITLE "9:cjc040_5001"
    INDEX 01 02:20:73
  TRACK 104 AUDIO
    TITLE "0:"
    INDEX 01 02:22:13
